name analog
datacolumns 19
datarows 57
range 0.5735 0.6015
endheader
time	ground_force_vx	ground_force_vy	ground_force_vz	ground_force_px	ground_force_py	ground_force_pz	l_ground_force_vx	l_ground_force_vy	l_ground_force_vz	l_ground_force_px	l_ground_force_py	l_ground_force_pz	ground_torque_x	ground_torque_y	ground_torque_z	l_ground_torque_x	l_ground_torque_y	l_ground_torque_z
0.5735	-0.0	-0.0	-0.0	-16.989700317382812	-0.0733596086502075	-731.4356689453125	-0.0	-0.0	-0.0	-0.0	-0.0	-0.0	-0.0	-0.0	-0.0	-0.0	-0.0	-0.0
0.5740000000000001	-0.0	-0.0	-0.0	-17.31292724609375	-0.2856409549713135	-730.02294921875	-0.0	-0.0	-0.0	-0.0	-0.0	-0.0	-0.0	-0.0	-0.0	-0.0	-0.0	-0.0
0.5745	-0.0	-0.0	-0.0	-17.703739166259766	-0.1567995846271515	-730.0719604492188	-0.0	-0.0	-0.0	-0.0	-0.0	-0.0	-0.0	-0.0	-0.0	-0.0	-0.0	-0.0
0.5750000000000001	-0.0	-0.0	-0.0	-18.52815055847168	0.3226141631603241	-728.0631713867188	-0.0	-0.0	-0.0	-0.0	-0.0	-0.0	-0.0	-0.0	-0.0	-0.0	-0.0	-0.0
0.5755	-0.0	-0.0	-0.0	-18.955005645751957	0.4879917502403259	-727.95458984375	-0.0	-0.0	-0.0	-0.0	-0.0	-0.0	-0.0	-0.0	-0.0	-0.0	-0.0	-0.0
0.5760000000000001	-0.0	-0.0	-0.0	-19.468936920166016	1.022489309310913	-728.038818359375	-0.0	-0.0	-0.0	-0.0	-0.0	-0.0	-0.0	-0.0	-0.0	-0.0	-0.0	-0.0
0.5765	-0.0	-0.0	-0.0	-19.516193389892575	2.310774564743042	-728.8543701171875	-0.0	-0.0	-0.0	-0.0	-0.0	-0.0	-0.0	-0.0	-0.0	-0.0	-0.0	-0.0
0.577	-0.0	-0.0	-0.0	-19.248708724975582	3.0786452293396	-728.3391723632812	-0.0	-0.0	-0.0	-0.0	-0.0	-0.0	-0.0	-0.0	-0.0	-0.0	-0.0	-0.0
0.5775	-0.0	-0.0	-0.0	-18.86455535888672	4.031465530395508	-733.2286376953125	-0.0	-0.0	-0.0	-0.0	-0.0	-0.0	-0.0	-0.0	-0.0	-0.0	-0.0	-0.0
0.578	-0.0	-0.0	-0.0	-18.020523071289062	4.27825927734375	-733.88037109375	-0.0	-0.0	-0.0	-0.0	-0.0	-0.0	-0.0	-0.0	-0.0	-0.0	-0.0	-0.0
0.5785	-0.0	-0.0	-0.0	-17.643348693847656	4.545650482177734	-736.163330078125	-0.0	-0.0	-0.0	-0.0	-0.0	-0.0	-0.0	-0.0	-0.0	-0.0	-0.0	-0.0
0.579	-0.0	-0.0	-0.0	-17.33418846130371	4.847522735595703	-739.2623291015625	-0.0	-0.0	-0.0	-0.0	-0.0	-0.0	-0.0	-0.0	-0.0	-0.0	-0.0	-0.0
0.5795	-0.0	-0.0	-0.0	-17.299571990966797	5.107723236083984	-742.247314453125	-0.0	-0.0	-0.0	-0.0	-0.0	-0.0	-0.0	-0.0	-0.0	-0.0	-0.0	-0.0
0.58	-0.0	-0.0	-0.0	-17.683584213256836	5.033294200897217	-745.180419921875	-0.0	-0.0	-0.0	-0.0	-0.0	-0.0	-0.0	-0.0	-0.0	-0.0	-0.0	-0.0
0.5805	-0.0	-0.0	-0.0	-17.54722785949707	4.627302646636963	-746.838134765625	-0.0	-0.0	-0.0	-0.0	-0.0	-0.0	-0.0	-0.0	-0.0	-0.0	-0.0	-0.0
0.581	-0.0	-0.0	-0.0	-17.62129783630371	5.41735315322876	-748.9268798828125	-0.0	-0.0	-0.0	-0.0	-0.0	-0.0	-0.0	-0.0	-0.0	-0.0	-0.0	-0.0
0.5815	-0.0	-0.0	-0.0	-17.89644432067871	5.374970436096191	-753.332763671875	-0.0	-0.0	-0.0	-0.0	-0.0	-0.0	-0.0	-0.0	-0.0	-0.0	-0.0	-0.0
0.582	-0.0	-0.0	-0.0	-18.03985023498535	6.328258514404297	-754.76025390625	-0.0	-0.0	-0.0	-0.0	-0.0	-0.0	-0.0	-0.0	-0.0	-0.0	-0.0	-0.0
0.5825	-0.0	-0.0	-0.0	-18.563695907592773	6.863040924072266	-757.3563842773438	-0.0	-0.0	-0.0	-0.0	-0.0	-0.0	-0.0	-0.0	-0.0	-0.0	-0.0	-0.0
0.583	-0.0	-0.0	-0.0	-18.850481033325195	7.924592971801758	-758.0748901367188	-0.0	-0.0	-0.0	-0.0	-0.0	-0.0	-0.0	-0.0	-0.0	-0.0	-0.0	-0.0
0.5835	-0.0	-0.0	-0.0	-18.831546783447266	9.064297676086426	-760.043212890625	-0.0	-0.0	-0.0	-0.0	-0.0	-0.0	-0.0	-0.0	-0.0	-0.0	-0.0	-0.0
0.584	-0.0	-0.0	-0.0	-17.636690139770508	9.580377578735352	-760.5775146484375	-0.0	-0.0	-0.0	-0.0	-0.0	-0.0	-0.0	-0.0	-0.0	-0.0	-0.0	-0.0
0.5845	-0.0	-0.0	-0.0	-17.331859588623047	10.616785049438477	-760.2896728515625	-0.0	-0.0	-0.0	-0.0	-0.0	-0.0	-0.0	-0.0	-0.0	-0.0	-0.0	-0.0
0.585	-0.0	-0.0	-0.0	-16.557785034179688	10.688776969909668	-758.5971069335938	-0.0	-0.0	-0.0	-0.0	-0.0	-0.0	-0.0	-0.0	-0.0	-0.0	-0.0	-0.0
0.5855	-0.0	-0.0	-0.0	-15.808585166931152	10.91907787322998	-759.9754638671875	-0.0	-0.0	-0.0	-0.0	-0.0	-0.0	-0.0	-0.0	-0.0	-0.0	-0.0	-0.0
0.586	-0.0	-0.0	-0.0	-15.14759922027588	11.997124671936035	-759.8648681640625	-0.0	-0.0	-0.0	-0.0	-0.0	-0.0	-0.0	-0.0	-0.0	-0.0	-0.0	-0.0
0.5865	-0.0	-0.0	-0.0	-14.648067474365234	12.264442443847656	-761.3844604492188	-0.0	-0.0	-0.0	-0.0	-0.0	-0.0	-0.0	-0.0	-0.0	-0.0	-0.0	-0.0
0.587	-0.0	-0.0	-0.0	-13.702760696411133	12.923908233642578	-763.2218017578125	-0.0	-0.0	-0.0	-0.0	-0.0	-0.0	-0.0	-0.0	-0.0	-0.0	-0.0	-0.0
0.5875	-0.0	-0.0	-0.0	-13.48875617980957	12.923908233642578	-762.5155029296875	-0.0	-0.0	-0.0	-0.0	-0.0	-0.0	-0.0	-0.0	-0.0	-0.0	-0.0	-0.0
0.588	-0.0	-0.0	-0.0	-13.087239265441896	13.48537254333496	-764.8820190429688	-0.0	-0.0	-0.0	-0.0	-0.0	-0.0	-0.0	-0.0	-0.0	-0.0	-0.0	-0.0
0.5885	-0.0	-0.0	-0.0	-12.462801933288574	14.2608642578125	-765.694091796875	-0.0	-0.0	-0.0	-0.0	-0.0	-0.0	-0.0	-0.0	-0.0	-0.0	-0.0	-0.0
0.589	-0.0	-0.0	-0.0	-11.998170852661133	14.94729709625244	-766.0472412109375	-0.0	-0.0	-0.0	-0.0	-0.0	-0.0	-0.0	-0.0	-0.0	-0.0	-0.0	-0.0
0.5895	-0.0	-0.0	-0.0	-11.276538848876951	16.32802963256836	-769.5791015625	-0.0	-0.0	-0.0	-0.0	-0.0	-0.0	-0.0	-0.0	-0.0	-0.0	-0.0	-0.0
0.59	-0.0	-0.0	-0.0	-10.883682250976562	17.48859214782715	-773.0056762695312	-0.0	-0.0	-0.0	-0.0	-0.0	-0.0	-0.0	-0.0	-0.0	-0.0	-0.0	-0.0
0.5905	-0.0	-0.0	-0.0	-10.22305393218994	18.47884750366211	-775.1249389648438	-0.0	-0.0	-0.0	-0.0	-0.0	-0.0	-0.0	-0.0	-0.0	-0.0	-0.0	-0.0
0.591	-0.0	-0.0	-0.0	-9.010261535644531	19.163036346435547	-777.6251220703125	-0.0	-0.0	-0.0	-0.0	-0.0	-0.0	-0.0	-0.0	-0.0	-0.0	-0.0	-0.0
0.5915	-0.0	-0.0	-0.0	-8.075092315673828	20.027908325195312	-781.0123291015625	-0.0	-0.0	-0.0	-0.0	-0.0	-0.0	-0.0	-0.0	-0.0	-0.0	-0.0	-0.0
0.592	-0.0	-0.0	-0.0	-7.288842678070068	20.66830825805664	-784.0458374023438	-0.0	-0.0	-0.0	-0.0	-0.0	-0.0	-0.0	-0.0	-0.0	-0.0	-0.0	-0.0
0.5925	-0.0	-0.0	-0.0	-6.400564193725586	21.33478736877441	-786.098876953125	-0.0	-0.0	-0.0	-0.0	-0.0	-0.0	-0.0	-0.0	-0.0	-0.0	-0.0	-0.0
0.593	-0.0	-0.0	-0.0	-5.299935340881348	22.30892372131348	-788.7789306640625	-0.0	-0.0	-0.0	-0.0	-0.0	-0.0	-0.0	-0.0	-0.0	-0.0	-0.0	-0.0
0.5935	-0.0	-0.0	-0.0	-4.004195690155029	22.82313537597656	-792.0784912109375	-0.0	-0.0	-0.0	-0.0	-0.0	-0.0	-0.0	-0.0	-0.0	-0.0	-0.0	-0.0
0.594	-0.0	-0.0	-0.0	-3.793879270553589	23.289287567138672	-793.0969848632812	-0.0	-0.0	-0.0	-0.0	-0.0	-0.0	-0.0	-0.0	-0.0	-0.0	-0.0	-0.0
0.5945	-0.0	-0.0	-0.0	-2.749775648117065	23.939380645751957	-795.1534423828125	-0.0	-0.0	-0.0	-0.0	-0.0	-0.0	-0.0	-0.0	-0.0	-0.0	-0.0	-0.0
0.595	-0.0	-0.0	-0.0	-1.889025092124939	24.98269271850586	-798.102783203125	-0.0	-0.0	-0.0	-0.0	-0.0	-0.0	-0.0	-0.0	-0.0	-0.0	-0.0	-0.0
0.5955	-0.0	-0.0	-0.0	-1.6581276655197144	25.480602264404297	-798.6434326171875	-0.0	-0.0	-0.0	-0.0	-0.0	-0.0	-0.0	-0.0	-0.0	-0.0	-0.0	-0.0
0.596	-0.0	-0.0	-0.0	-0.9290500283241272	26.16742706298828	-799.9954223632812	-0.0	-0.0	-0.0	-0.0	-0.0	-0.0	-0.0	-0.0	-0.0	-0.0	-0.0	-0.0
0.5965	-0.0	-0.0	-0.0	-0.31982421875	26.765193939208984	-800.09912109375	-0.0	-0.0	-0.0	-0.0	-0.0	-0.0	-0.0	-0.0	-0.0	-0.0	-0.0	-0.0
0.597	-0.0	-0.0	-0.0	0.1152723580598831	27.63443374633789	-800.7620849609375	-0.0	-0.0	-0.0	-0.0	-0.0	-0.0	-0.0	-0.0	-0.0	-0.0	-0.0	-0.0
0.5975	-0.0	-0.0	-0.0	0.8289200067520142	28.38810157775879	-802.0567626953125	-0.0	-0.0	-0.0	-0.0	-0.0	-0.0	-0.0	-0.0	-0.0	-0.0	-0.0	-0.0
0.598	-0.0	-0.0	-0.0	1.5945454835891724	30.281869888305664	-802.3803100585938	-0.0	-0.0	-0.0	-0.0	-0.0	-0.0	-0.0	-0.0	-0.0	-0.0	-0.0	-0.0
0.5985	-0.0	-0.0	-0.0	2.397336483001709	31.92327880859375	-800.658935546875	-0.0	-0.0	-0.0	-0.0	-0.0	-0.0	-0.0	-0.0	-0.0	-0.0	-0.0	-0.0
0.599	-0.0	-0.0	-0.0	2.8258132934570312	33.245643615722656	-800.5681762695312	-0.0	-0.0	-0.0	-0.0	-0.0	-0.0	-0.0	-0.0	-0.0	-0.0	-0.0	-0.0
0.5995	-0.0	-0.0	-0.0	3.2776570320129395	34.306396484375	-800.96630859375	-0.0	-0.0	-0.0	-0.0	-0.0	-0.0	-0.0	-0.0	-0.0	-0.0	-0.0	-0.0
0.6	-0.0	-0.0	-0.0	3.148213624954224	35.09405517578125	-801.0120849609375	-0.0	-0.0	-0.0	-0.0	-0.0	-0.0	-0.0	-0.0	-0.0	-0.0	-0.0	-0.0
0.6005	-0.0	-0.0	-0.0	2.791337013244629	35.11963653564453	-798.5864868164062	-0.0	-0.0	-0.0	-0.0	-0.0	-0.0	-0.0	-0.0	-0.0	-0.0	-0.0	-0.0
0.601	-0.0	-0.0	-0.0	2.4721195697784424	35.511531829833984	-797.2841186523438	-0.0	-0.0	-0.0	-0.0	-0.0	-0.0	-0.0	-0.0	-0.0	-0.0	-0.0	-0.0
0.6015	-0.0	-0.0	-0.0	2.636833906173706	34.568870544433594	-797.6771850585938	-0.0	-0.0	-0.0	-0.0	-0.0	-0.0	-0.0	-0.0	-0.0	-0.0	-0.0	-0.0
